<?xml version="1.0" encoding="UTF-8" standalone="no"?>
<!DOCTYPE svg PUBLIC "-//W3C//DTD SVG 1.1//EN"
 "http://www.w3.org/Graphics/SVG/1.1/DTD/svg11.dtd">
<!-- Generated by graphviz version 2.43.0 (0)
 -->
<!-- Title: G Pages: 1 -->
<svg width="858pt" height="222pt"
 viewBox="0.00 0.00 857.50 222.00" xmlns="http://www.w3.org/2000/svg" xmlns:xlink="http://www.w3.org/1999/xlink">
<g id="graph0" class="graph" transform="scale(1 1) rotate(0) translate(4 218)">
<title>G</title>
<!-- preso -->
<g id="node1" class="node">
<title>preso</title>
<path fill="#eef2f7" stroke="#5f6b7a" d="M126,-214C126,-214 12,-214 12,-214 6,-214 0,-208 0,-202 0,-202 0,-188 0,-188 0,-182 6,-176 12,-176 12,-176 126,-176 126,-176 132,-176 138,-182 138,-188 138,-188 138,-202 138,-202 138,-208 132,-214 126,-214"/>
<text text-anchor="middle" x="69" y="-198.4" font-family="Myriad Pro,Helvetica,Arial,sans-serif" font-size="12.00">Presocráticos</text>
<text text-anchor="middle" x="69" y="-185.4" font-family="Myriad Pro,Helvetica,Arial,sans-serif" font-size="12.00">(physis · atomismo)</text>
</g>
<!-- epi -->
<g id="node8" class="node">
<title>epi</title>
<path fill="#eef2f7" stroke="#5f6b7a" d="M103.5,-125C103.5,-125 34.5,-125 34.5,-125 28.5,-125 22.5,-119 22.5,-113 22.5,-113 22.5,-101 22.5,-101 22.5,-95 28.5,-89 34.5,-89 34.5,-89 103.5,-89 103.5,-89 109.5,-89 115.5,-95 115.5,-101 115.5,-101 115.5,-113 115.5,-113 115.5,-119 109.5,-125 103.5,-125"/>
<text text-anchor="middle" x="69" y="-103.9" font-family="Myriad Pro,Helvetica,Arial,sans-serif" font-size="12.00">Epicureísmo</text>
</g>
<!-- preso&#45;&gt;epi -->
<g id="edge6" class="edge">
<title>preso&#45;&gt;epi</title>
<path fill="none" stroke="#2e7d32" stroke-width="1.7" d="M69,-175.76C69,-163.93 69,-148.32 69,-135.05"/>
<polygon fill="#2e7d32" stroke="#2e7d32" stroke-width="1.7" points="72.5,-135.04 69,-125.04 65.5,-135.04 72.5,-135.04"/>
<text text-anchor="middle" x="94" y="-148" font-family="Myriad Pro,Helvetica,Arial,sans-serif" font-size="10.00" fill="#2e7d32">atomismo</text>
</g>
<!-- sof -->
<g id="node2" class="node">
<title>sof</title>
<path fill="#eef2f7" stroke="#5f6b7a" d="M657.5,-214C657.5,-214 534.5,-214 534.5,-214 528.5,-214 522.5,-208 522.5,-202 522.5,-202 522.5,-188 522.5,-188 522.5,-182 528.5,-176 534.5,-176 534.5,-176 657.5,-176 657.5,-176 663.5,-176 669.5,-182 669.5,-188 669.5,-188 669.5,-202 669.5,-202 669.5,-208 663.5,-214 657.5,-214"/>
<text text-anchor="middle" x="596" y="-198.4" font-family="Myriad Pro,Helvetica,Arial,sans-serif" font-size="12.00">Sofistas</text>
<text text-anchor="middle" x="596" y="-185.4" font-family="Myriad Pro,Helvetica,Arial,sans-serif" font-size="12.00">(Protágoras, Gorgias)</text>
</g>
<!-- soc -->
<g id="node4" class="node">
<title>soc</title>
<path fill="#eef2f7" stroke="#5f6b7a" d="M397.5,-213C397.5,-213 348.5,-213 348.5,-213 342.5,-213 336.5,-207 336.5,-201 336.5,-201 336.5,-189 336.5,-189 336.5,-183 342.5,-177 348.5,-177 348.5,-177 397.5,-177 397.5,-177 403.5,-177 409.5,-183 409.5,-189 409.5,-189 409.5,-201 409.5,-201 409.5,-207 403.5,-213 397.5,-213"/>
<text text-anchor="middle" x="373" y="-191.9" font-family="Myriad Pro,Helvetica,Arial,sans-serif" font-size="12.00">Sócrates</text>
</g>
<!-- sof&#45;&gt;soc -->
<g id="edge8" class="edge">
<title>sof&#45;&gt;soc</title>
<path fill="none" stroke="#c62828" stroke-width="1.6" stroke-dasharray="5,2" d="M522.1,-195C484.42,-195 440.26,-195 409.82,-195"/>
<text text-anchor="middle" x="466" y="-212" font-family="Myriad Pro,Helvetica,Arial,sans-serif" font-size="10.00" fill="#c62828">¿verdad universal</text>
<text text-anchor="middle" x="466" y="-201" font-family="Myriad Pro,Helvetica,Arial,sans-serif" font-size="10.00" fill="#c62828">o convención?</text>
</g>
<!-- asp -->
<g id="node3" class="node">
<title>asp</title>
<path fill="#eef2f7" stroke="#5f6b7a" d="M420.5,-125C420.5,-125 319.5,-125 319.5,-125 313.5,-125 307.5,-119 307.5,-113 307.5,-113 307.5,-101 307.5,-101 307.5,-95 313.5,-89 319.5,-89 319.5,-89 420.5,-89 420.5,-89 426.5,-89 432.5,-95 432.5,-101 432.5,-101 432.5,-113 432.5,-113 432.5,-119 426.5,-125 420.5,-125"/>
<text text-anchor="middle" x="370" y="-103.9" font-family="Myriad Pro,Helvetica,Arial,sans-serif" font-size="12.00">Aspasia de Mileto</text>
</g>
<!-- hip -->
<g id="node11" class="node">
<title>hip</title>
<path fill="#eef2f7" stroke="#5f6b7a" d="M393,-38C393,-38 299,-38 299,-38 293,-38 287,-32 287,-26 287,-26 287,-12 287,-12 287,-6 293,0 299,0 299,0 393,0 393,0 399,0 405,-6 405,-12 405,-12 405,-26 405,-26 405,-32 399,-38 393,-38"/>
<text text-anchor="middle" x="346" y="-22.4" font-family="Myriad Pro,Helvetica,Arial,sans-serif" font-size="12.00">Hipatia</text>
<text text-anchor="middle" x="346" y="-9.4" font-family="Myriad Pro,Helvetica,Arial,sans-serif" font-size="12.00">(neoplatonismo)</text>
</g>
<!-- asp&#45;&gt;hip -->
<g id="edge7" class="edge">
<title>asp&#45;&gt;hip</title>
<path fill="none" stroke="#2e7d32" stroke-width="1.7" d="M365.14,-88.6C361.89,-76.94 357.54,-61.34 353.8,-47.96"/>
<polygon fill="#2e7d32" stroke="#2e7d32" stroke-width="1.7" points="357.16,-46.96 351.1,-38.27 350.41,-48.84 357.16,-46.96"/>
<text text-anchor="middle" x="401" y="-61" font-family="Myriad Pro,Helvetica,Arial,sans-serif" font-size="10.00" fill="#2e7d32">la serie continúa</text>
</g>
<!-- pla -->
<g id="node5" class="node">
<title>pla</title>
<path fill="#eef2f7" stroke="#5f6b7a" d="M270,-125C270,-125 236,-125 236,-125 230,-125 224,-119 224,-113 224,-113 224,-101 224,-101 224,-95 230,-89 236,-89 236,-89 270,-89 270,-89 276,-89 282,-95 282,-101 282,-101 282,-113 282,-113 282,-119 276,-125 270,-125"/>
<text text-anchor="middle" x="253" y="-103.9" font-family="Myriad Pro,Helvetica,Arial,sans-serif" font-size="12.00">Platón</text>
</g>
<!-- soc&#45;&gt;pla -->
<g id="edge1" class="edge">
<title>soc&#45;&gt;pla</title>
<path fill="none" stroke="#2e7d32" stroke-width="1.7" d="M349,-176.8C330.69,-163.68 305.28,-145.47 285.2,-131.07"/>
<polygon fill="#2e7d32" stroke="#2e7d32" stroke-width="1.7" points="287.12,-128.15 276.95,-125.17 283.04,-133.84 287.12,-128.15"/>
</g>
<!-- cin -->
<g id="node7" class="node">
<title>cin</title>
<path fill="#eef2f7" stroke="#5f6b7a" d="M514,-125C514,-125 470,-125 470,-125 464,-125 458,-119 458,-113 458,-113 458,-101 458,-101 458,-95 464,-89 470,-89 470,-89 514,-89 514,-89 520,-89 526,-95 526,-101 526,-101 526,-113 526,-113 526,-119 520,-125 514,-125"/>
<text text-anchor="middle" x="492" y="-103.9" font-family="Myriad Pro,Helvetica,Arial,sans-serif" font-size="12.00">Cinismo</text>
</g>
<!-- soc&#45;&gt;cin -->
<g id="edge2" class="edge">
<title>soc&#45;&gt;cin</title>
<path fill="none" stroke="#2e7d32" stroke-width="1.7" d="M396.8,-176.8C414.96,-163.68 440.16,-145.47 460.07,-131.07"/>
<polygon fill="#2e7d32" stroke="#2e7d32" stroke-width="1.7" points="462.19,-133.86 468.25,-125.17 458.09,-128.19 462.19,-133.86"/>
<text text-anchor="middle" x="466" y="-148" font-family="Myriad Pro,Helvetica,Arial,sans-serif" font-size="10.00" fill="#2e7d32">Antístenes</text>
</g>
<!-- ari -->
<g id="node6" class="node">
<title>ari</title>
<path fill="#eef2f7" stroke="#5f6b7a" d="M201,-37C201,-37 141,-37 141,-37 135,-37 129,-31 129,-25 129,-25 129,-13 129,-13 129,-7 135,-1 141,-1 141,-1 201,-1 201,-1 207,-1 213,-7 213,-13 213,-13 213,-25 213,-25 213,-31 207,-37 201,-37"/>
<text text-anchor="middle" x="171" y="-15.9" font-family="Myriad Pro,Helvetica,Arial,sans-serif" font-size="12.00">Aristóteles</text>
</g>
<!-- pla&#45;&gt;ari -->
<g id="edge4" class="edge">
<title>pla&#45;&gt;ari</title>
<path fill="none" stroke="#2e7d32" stroke-width="1.7" d="M223.91,-101.3C205.05,-96.59 181.85,-87.26 170,-69 165.86,-62.62 164.73,-54.72 165.02,-47.15"/>
<polygon fill="#2e7d32" stroke="#2e7d32" stroke-width="1.7" points="168.5,-47.51 166.14,-37.18 161.54,-46.73 168.5,-47.51"/>
<text text-anchor="middle" x="190.5" y="-61" font-family="Myriad Pro,Helvetica,Arial,sans-serif" font-size="10.00" fill="#2e7d32">maestro</text>
</g>
<!-- pla&#45;&gt;ari -->
<g id="edge9" class="edge">
<title>pla&#45;&gt;ari</title>
<path fill="none" stroke="#c62828" stroke-width="1.6" stroke-dasharray="5,2" d="M239.49,-88.61C231.99,-79.27 222.32,-67.7 213,-58 206.19,-50.91 198.29,-43.56 191.19,-37.23"/>
<text text-anchor="middle" x="256.5" y="-61" font-family="Myriad Pro,Helvetica,Arial,sans-serif" font-size="10.00" fill="#c62828">conocimiento</text>
</g>
<!-- pla&#45;&gt;hip -->
<g id="edge5" class="edge">
<title>pla&#45;&gt;hip</title>
<path fill="none" stroke="#2e7d32" stroke-width="1.7" d="M273.36,-88.95C280.6,-82.76 288.75,-75.66 296,-69 304.06,-61.6 312.63,-53.35 320.36,-45.76"/>
<polygon fill="#2e7d32" stroke="#2e7d32" stroke-width="1.7" points="323.1,-47.96 327.75,-38.44 318.18,-42.98 323.1,-47.96"/>
</g>
<!-- est -->
<g id="node9" class="node">
<title>est</title>
<path fill="#eef2f7" stroke="#5f6b7a" d="M522,-37C522,-37 462,-37 462,-37 456,-37 450,-31 450,-25 450,-25 450,-13 450,-13 450,-7 456,-1 462,-1 462,-1 522,-1 522,-1 528,-1 534,-7 534,-13 534,-13 534,-25 534,-25 534,-31 528,-37 522,-37"/>
<text text-anchor="middle" x="492" y="-15.9" font-family="Myriad Pro,Helvetica,Arial,sans-serif" font-size="12.00">Estoicismo</text>
</g>
<!-- cin&#45;&gt;est -->
<g id="edge3" class="edge">
<title>cin&#45;&gt;est</title>
<path fill="none" stroke="#2e7d32" stroke-width="1.7" d="M492,-88.6C492,-76.75 492,-60.82 492,-47.29"/>
<polygon fill="#2e7d32" stroke="#2e7d32" stroke-width="1.7" points="495.5,-47.08 492,-37.08 488.5,-47.08 495.5,-47.08"/>
<text text-anchor="middle" x="527.5" y="-61" font-family="Myriad Pro,Helvetica,Arial,sans-serif" font-size="10.00" fill="#2e7d32">Crates→Zenón</text>
</g>
<!-- epi&#45;&gt;pla -->
<g id="edge10" class="edge">
<title>epi&#45;&gt;pla</title>
<path fill="none" stroke="#c62828" stroke-width="1.6" stroke-dasharray="5,2" d="M115.91,-107C149.98,-107 195.01,-107 224,-107"/>
<text text-anchor="middle" x="169.75" y="-113" font-family="Myriad Pro,Helvetica,Arial,sans-serif" font-size="10.00" fill="#c62828">placer vs Formas</text>
</g>
<!-- esc -->
<g id="node10" class="node">
<title>esc</title>
<path fill="#eef2f7" stroke="#5f6b7a" d="M837.5,-213C837.5,-213 762.5,-213 762.5,-213 756.5,-213 750.5,-207 750.5,-201 750.5,-201 750.5,-189 750.5,-189 750.5,-183 756.5,-177 762.5,-177 762.5,-177 837.5,-177 837.5,-177 843.5,-177 849.5,-183 849.5,-189 849.5,-189 849.5,-201 849.5,-201 849.5,-207 843.5,-213 837.5,-213"/>
<text text-anchor="middle" x="800" y="-191.9" font-family="Myriad Pro,Helvetica,Arial,sans-serif" font-size="12.00">Escepticismo</text>
</g>
<!-- esc&#45;&gt;sof -->
<g id="edge11" class="edge">
<title>esc&#45;&gt;sof</title>
<path fill="none" stroke="#c62828" stroke-width="1.6" stroke-dasharray="5,2" d="M750.37,-195C726.13,-195 696.47,-195 669.65,-195"/>
<text text-anchor="middle" x="710" y="-212" font-family="Myriad Pro,Helvetica,Arial,sans-serif" font-size="10.00" fill="#c62828">epojé vs</text>
<text text-anchor="middle" x="710" y="-201" font-family="Myriad Pro,Helvetica,Arial,sans-serif" font-size="10.00" fill="#c62828">relativismo</text>
</g>
</g>
</svg>
